<svg xmlns="http://www.w3.org/2000/svg" width="300" height="100"><path d="M -50,100 H 350 V 0 H -50 z" fill="#dcebbd"/><path d="M 350,50 C 350,22.386 260.457,0 150,0 39.543,0 -50,22.386 -50,50 c 0,27.614 89.543,50 200,50 110.457,0 200,-22.386 200,-50 z" fill="#cce49a"/><path d="M 292.857,50 C 292.857,30.276 228.897,14.286 150,14.286 71.102,14.286 7.143,30.276 7.143,50 c 0,19.724 63.96,35.714 142.857,35.714 78.898,0 142.857,-15.99 142.857,-35.714 z" fill="#bcdb79"/><path d="m 235.714,50 c 0,-11.835 -38.375,-21.43 -85.714,-21.43 -47.34,0 -85.714,9.595 -85.714,21.43 0,11.835 38.375,21.43 85.714,21.43 47.34,0 85.714,-9.595 85.714,-21.43 z" fill="#a9d05a"/><path d="m 178.57,50 c 0,-3.945 -12.79,-7.143 -28.57,-7.143 -15.78,0 -28.57,3.198 -28.57,7.143 0,3.945 12.79,7.143 28.57,7.143 15.78,0 28.57,-3.198 28.57,-7.143 z" fill="#9ccd32"/></svg>