<svg xmlns="http://www.w3.org/2000/svg" width="100" height="100"><path d="m 16.784,8.546 c -1.142,0.166 -2.093,0.087 -1.99,2.675 l 0.18,48.095 71.58,1.643 -0.098,-49.032 c 0.15,-2.1 -0.302,-3.16 -2.192,-3.144 z M 0.5,84.738 l 0.065,3.84 c -0.134,2.005 0.796,2.618 1.842,2.876 l 94.86,-0.182 c 1.22,-0.002 2.355,-1.106 2.222,-3.12 l -0.034,-3.8 z" fill="#ccc" stroke="#000"/><path d="M 15.052,58.354 0.65,84.326 c -0.22,0.773 0.027,1.557 1.11,1.543 l 95.884,-0.075 c 1.634,0.106 2.227,-0.786 1.47,-2.16 L 86.606,58.374 z" fill="#e6e6e6" stroke="#000"/><path d="m 19.066,12.98 0.05,41.628 H 81.9 l 0.156,-41.644 z m 22.89,64.185 -2.346,5.355 c -0.36,0.782 -0.017,1.46 0.723,1.418 l 19.32,-0.056 c 0.602,0.074 1.15,-0.833 0.844,-1.567 l -2.06,-5.066 c -0.205,-0.597 -0.558,-0.796 -0.945,-0.78 l -14.393,0.145 c -0.733,-0.036 -0.907,0.23 -1.145,0.55 z M 19.67,61.59 c -0.867,-0.06 -1.362,0.982 -1.736,1.7 l -4.956,10.08 c -0.702,1.282 0.412,1.547 1.302,1.565 l 72.742,-0.018 c 1.06,0.025 1.527,-0.938 0.86,-1.977 L 83.24,62.93 C 82.95,62.352 82.556,61.794 81.868,61.8 z" fill="#f2f2f2" stroke="#000"/></svg>
