<svg xmlns="http://www.w3.org/2000/svg" width="100" height="100"><path d="m 0.928,19.133 h 98.144 c 0.237,0 0.428,0.19 0.428,0.428 v 60.88 c 0,0.236 -0.19,0.427 -0.428,0.427 H 0.928 C 0.691,80.868 0.5,80.678 0.5,80.44 V 19.56 c 0,-0.236 0.19,-0.427 0.428,-0.427 z" fill="#ccc" stroke="#000"/><path d="M 92.35,37.9 H 74.2 V 25.8 h 18.15 v 12.1 z m 0,18.15 h -12.1 v -12.1 h 12.1 v 12.1 z m 0,18.15 H 74.2 V 62.1 h 18.15 v 12.1 z m -24.2,0 H 19.75 V 62.1 h 48.4 v 12.1 z m -54.45,0 H 7.65 V 62.1 H 13.7 V 74.2 z M 7.65,43.95 h 12.1 v 12.1 H 7.65 v -12.1 z m 0,-18.15 H 13.7 V 37.9 H 7.65 V 25.8 z M 37.9,43.95 v 12.1 H 25.8 V 43.95 H 37.9 z M 19.75,25.8 h 12.1 V 37.9 H 19.75 V 25.8 z m 36.3,18.15 v 12.1 h -12.1 v -12.1 h 12.1 z M 37.9,25.8 H 50 V 37.9 H 37.9 V 25.8 z m 36.3,18.15 v 12.1 H 62.1 V 43.95 H 74.2 z M 56.05,25.8 h 12.1 V 37.9 H 56.05 V 25.8 z" fill="#f2f2f2" stroke="#000"/></svg>