<svg xmlns="http://www.w3.org/2000/svg" width="100" height="100"><path d="m 41.824,4.394 c -5.907,2.73 -10.16,8.414 -11.845,15.485 -0.986,4.072 -1.88,7.384 -2.686,14.41 -0.493,4.238 -1.597,6.967 -2.984,8.13 -9.4,7.82 -14.173,18.903 -11.786,31.315 0.508,2.58 1.835,2.208 1.955,-0.298 0.297,-6.385 1.744,-9.593 3.072,-11.83 1.522,-2.566 4.058,-5.565 8.205,-8.668 0.24,0.282 0.403,0.64 0.493,1.073 -4.566,3.536 -7.266,7.086 -8.653,10.443 -2.462,5.967 -2.417,12.1 0.61,18.648 1.165,2.507 3.462,5.684 6.924,9.503 0.33,0.12 0.508,0.448 0.448,0.776 -0.06,0.343 -0.343,0.597 -0.686,0.582 -1.746,-0.06 -4.685,0.09 -6.102,1.18 -0.79,0.625 -0.835,1.34 0.254,1.76 0.716,0.282 1.268,0.312 1.58,0.46 0.747,0.345 1.538,0.27 2.358,0.09 1.522,-0.357 2.566,-0.283 2.566,0.717 0,0.97 1.06,1.79 3.447,1.03 4.908,-1.537 8.19,-1.91 10.846,-0.135 0.94,0.627 1.985,0.09 2,-1.044 0,-1.164 -0.36,-1.76 0.164,-2.193 1.104,-0.895 3.908,-1.045 7.996,-1.12 4.088,0.076 6.892,0.225 7.996,1.12 0.523,0.432 0.164,1.03 0.164,2.193 0.015,1.134 1.06,1.67 2,1.044 2.655,-1.775 5.937,-1.402 10.846,0.134 2.386,0.762 3.446,-0.058 3.446,-1.028 0,-1 1.044,-1.074 2.566,-0.716 0.82,0.18 1.61,0.253 2.357,-0.09 0.313,-0.15 0.865,-0.18 1.58,-0.462 1.09,-0.418 1.045,-1.134 0.255,-1.76 -1.418,-1.09 -4.357,-1.24 -6.102,-1.18 -0.343,0.016 -0.627,-0.238 -0.686,-0.58 -0.06,-0.33 0.12,-0.657 0.447,-0.777 3.46,-3.82 5.758,-6.997 6.922,-9.503 3.028,-6.55 3.073,-12.68 0.61,-18.648 -1.386,-3.357 -4.086,-6.908 -8.65,-10.443 0.088,-0.433 0.252,-0.79 0.49,-1.074 4.148,3.102 6.684,6.1 8.206,8.666 1.328,2.238 2.775,5.446 3.073,11.83 0.12,2.507 1.45,2.88 1.956,0.3 C 89.863,61.322 85.09,50.237 75.69,42.42 74.303,41.257 73.2,38.527 72.706,34.29 71.901,27.264 71.006,23.952 70.021,19.88 67.635,9.87 60.116,2.632 50,2.632 c 1.58,-0.73 3.595,-1.447 6.042,-2.133 -5.79,0.67 -10.533,1.97 -14.218,3.894 z" fill="#ccc" stroke="#000"/><path d="m 42.66,13.733 c -2.656,0 -4.76,2.178 -6.057,5.19 -1,2.344 -1.805,5.686 -2,10.266 -0.133,2.863 -0.715,4.504 -1.46,5.175 -4.044,3.745 -4.193,7.46 -0.822,10.98 1.18,1.24 2.21,2.328 3.15,3.282 1.237,1.254 1.43,2.775 0,3.312 -8.176,3.058 -14.293,11.323 -15.994,15.53 -2.222,5.49 1.626,21.512 9.07,25.406 4.626,2.432 9.4,2.342 13.263,1.044 2.476,-0.835 5.13,-1.536 8.19,-1.447 3.058,-0.09 5.714,0.612 8.19,1.447 3.864,1.298 8.638,1.388 13.263,-1.044 7.444,-3.894 11.293,-19.916 9.07,-25.406 -1.7,-4.207 -7.817,-12.472 -15.993,-15.53 -1.432,-0.538 -1.238,-2.06 0,-3.312 0.94,-0.955 1.97,-2.044 3.148,-3.282 3.372,-3.52 3.223,-7.236 -0.82,-10.98 -0.746,-0.672 -1.328,-2.313 -1.462,-5.177 -0.194,-4.58 -1,-7.923 -2,-10.265 -1.297,-3.014 -3.4,-5.192 -6.056,-5.192 -3.626,0 -6.505,3.968 -6.758,8.95 -0.15,2.866 -0.3,5.014 -0.24,6.49 1.463,0.568 3.208,1.776 5.193,3.626 1.506,1.924 0.64,3.684 -2.566,5.25 -0.926,0.344 -1.91,0.508 -2.97,0.508 -1.06,0 -2.044,-0.164 -2.97,-0.508 -3.207,-1.566 -4.072,-3.326 -2.565,-5.25 1.984,-1.85 3.73,-3.06 5.192,-3.626 0.06,-1.477 -0.09,-3.625 -0.24,-6.49 -0.253,-4.983 -3.132,-8.95 -6.757,-8.95 z" fill="#f9f9f9" stroke="#000"/><path d="m 44.883,23.475 c 0.015,1.014 0.015,2.207 -0.015,3.58 0,1.7 -0.865,3.088 -1.94,3.088 -1.074,0 -1.954,-1.387 -1.954,-3.088 0,-0.806 0.194,-1.522 0.507,-2.073 0.42,-0.76 1.09,-1.328 2.045,-1.7 -0.03,0.043 -0.06,0.103 -0.09,0.163 -0.357,0.746 -0.372,1.477 -0.03,1.64 0.344,0.165 0.91,-0.297 1.27,-1.043 0.088,-0.194 0.163,-0.388 0.208,-0.567 z m 14.128,0 c 0.016,1.014 0.016,2.207 -0.014,3.58 0,1.7 -0.866,3.088 -1.94,3.088 -1.074,0 -1.954,-1.387 -1.954,-3.088 0,-0.806 0.194,-1.522 0.507,-2.073 0.417,-0.76 1.088,-1.328 2.043,-1.7 -0.03,0.043 -0.06,0.103 -0.09,0.163 -0.357,0.746 -0.372,1.477 -0.03,1.64 0.344,0.165 0.91,-0.297 1.27,-1.043 0.088,-0.194 0.163,-0.388 0.208,-0.567 z" fill="#4d4d4d" stroke="#000"/></svg>