<svg xmlns="http://www.w3.org/2000/svg" width="100" height="100"><path d="m 74.75,0.5 h -49.5 c -3.42,0 -6.188,2.77 -6.188,6.187 v 86.626 c 0,3.42 2.77,6.187 6.188,6.187 h 49.5 c 3.42,0 6.188,-2.768 6.188,-6.187 V 6.687 C 80.938,3.27 78.17,0.5 74.75,0.5 z" fill="#ccc" stroke="#000"/><path d="m 39.17,5.14 h 21.66 c 0.858,0 1.547,0.694 1.547,1.548 0,0.854 -0.69,1.546 -1.547,1.546 H 39.173 c -0.858,0 -1.547,-0.693 -1.547,-1.547 0,-0.854 0.69,-1.546 1.547,-1.546 z M 50,94.86 c -2.562,0 -4.64,-2.08 -4.64,-4.642 0,-2.56 2.078,-4.64 4.64,-4.64 2.562,0 4.64,2.08 4.64,4.64 0,2.562 -2.078,4.64 -4.64,4.64 z M 74.75,80.938 H 25.25 V 12.875 h 49.5 v 68.063 z" fill="#f2f2f2" stroke="#000"/></svg>