<svg xmlns="http://www.w3.org/2000/svg" width="100" height="100"><path d="M 80.938,0.5 H 19.062 C 12.228,0.5 6.687,6.04 6.687,12.875 v 74.25 c 0,6.834 5.54,12.375 12.375,12.375 h 61.876 c 6.834,0 12.375,-5.54 12.375,-12.375 V 12.875 C 93.313,6.04 87.773,0.5 80.938,0.5 z" fill="#ccc" stroke="#000"/><path d="M 84.47,9.53 H 15.53 V 78.47 H 84.47 V 9.53 z M 50,86.01 c -1.71,0 -3.094,1.385 -3.094,3.095 0,1.71 1.384,3.094 3.094,3.094 1.71,0 3.094,-1.387 3.094,-3.097 0,-1.71 -1.384,-3.092 -3.094,-3.092 z" fill="#f2f2f2" stroke="#000"/></svg>